<?xml version="1.0" encoding="UTF-8"?>
<svg width="86px" height="28px" viewBox="0 0 86 28" version="1.1" xmlns="http://www.w3.org/2000/svg" xmlns:xlink="http://www.w3.org/1999/xlink">
    <!-- Generator: Sketch 52.2 (67145) - http://www.bohemiancoding.com/sketch -->
    <title>LOGO</title>
    <desc>Created with Sketch.</desc>
    <g id="未登录首页-二期" stroke="none" stroke-width="1" fill="none" fill-rule="evenodd">
        <g id="1-ifchange未登录首页" transform="translate(-50.000000, -16.000000)" fill="#FFFFFF">
            <g id="TOP">
                <g id="LOGO" transform="translate(50.000000, 16.000000)">
                    <g id="Group-2" transform="translate(40.850000, 4.307692)">
                        <path d="M44.1494448,4.32996815 L40.0287705,4.33043163 C39.7526477,4.33045933 39.5288206,4.55430884 39.5288206,4.83043163 L39.5288215,8.15917191 C39.5288215,8.43529435 39.752648,8.65914372 40.0287705,8.6591719 L44.0528333,8.6597357 C44.6050782,8.65979206 45.0527313,9.1074908 45.0527313,9.65973569 L45.0528333,10.0208668 C45.0528333,10.5731515 44.6051181,11.0208668 44.0528333,11.0208668 L40.0293257,11.0209243 C39.7532058,11.0209243 39.5293575,11.2447469 39.5293257,11.5208668 L39.5287705,15.8417912 C39.5293257,16.5313001 40.0134932,17.0229205 40.6919941,17.0229205 L44.1494448,17.0231557 C44.7016377,17.0231557 45.1493149,17.4707276 45.1494447,18.0229206 L45.1501264,18.3846153 C45.1502562,18.9369001 44.7026463,19.3847206 44.1503615,19.3848504 C44.150241,19.3848504 44.1501205,19.3848504 44.15,19.3848504 L40.6919941,19.3840516 C38.7542134,19.3840516 37.2039889,17.8099642 37.2034337,15.8417912 L37.2034619,4.73120549 C37.2034619,4.45506312 36.9796043,4.23120549 36.7034619,4.23120549 C36.7034525,4.23120549 36.7034431,4.23120549 36.7034337,4.23120549 L27.7230306,4.23189757 C27.4469493,4.23191317 27.2231297,4.45568806 27.2230589,4.7317693 L27.22196,8.06050955 C27.2218891,8.33665191 27.4456893,8.56056696 27.7218317,8.5606378 C27.7218612,8.56063781 27.7218906,8.56063781 27.7219201,8.56063781 L33.2962075,8.56102204 C33.8484812,8.56106605 34.2961561,9.00879968 34.2961278,9.56107334 L34.2956523,18.3840516 C34.2956239,18.9363163 33.847917,19.3840003 33.2956523,19.3840003 L32.9703155,19.384118 C32.4180308,19.384118 31.9703155,18.9364027 31.9703155,18.384118 C31.9703155,18.3840959 31.9703155,18.3840737 31.9703155,18.3840516 L31.9709313,11.520303 C31.9709497,11.2441606 31.7471069,11.0202881 31.4709645,11.0202698 C31.4709333,11.0202698 31.470902,11.0202698 31.4708707,11.0202698 L27.819642,11.0208668 C27.5435233,11.0209002 27.3197026,11.244748 27.3197026,11.5208668 L27.3198844,18.3840516 C27.3198844,18.9363363 26.8721691,19.3840516 26.3198844,19.3840516 C26.3198036,19.3840516 26.3197228,19.3840516 26.319642,19.3840516 L25.99375,19.3834878 C25.44156,19.3833539 24.9939924,18.9356779 24.9939924,18.3834878 L24.99375,4.13310692 C24.99375,2.85331526 25.9626403,1.86951065 27.2224753,1.87007443 L34.9594311,1.86951065 C35.2355601,1.86949175 35.4593969,1.64563966 35.4593969,1.36951065 L35.4594311,0.935319109 C35.4594311,0.419306108 35.8776096,0.000924792492 36.3936226,0.00067457472 L36.8497307,0.000453405125 C37.3660404,0.000203043461 37.7847951,0.418551781 37.7850454,0.934861463 C37.7850455,0.934920048 37.7850455,0.934978632 37.7850455,0.935037217 L37.7853231,1.37007441 C37.7854051,1.6461588 38.0092387,1.86992596 38.2853231,1.86992596 L42.3235528,1.87007443 C42.5996951,1.87007443 42.8235528,1.64621681 42.8235528,1.37007443 L42.8235528,0.935319109 C42.8235528,0.419067999 43.242057,0.000563784876 43.7583081,0.000563784876 L44.1488895,0.000692044199 C44.7011242,0.000692044199 45.1488187,0.448329132 45.1488895,1.00056379 L45.1493445,3.32986785 C45.1494153,3.8821526 44.7017575,4.32992526 44.1494727,4.32999609 C44.1494634,4.32999609 44.1494541,4.3299961 44.1494448,4.3299961 Z" id="Fill-1"></path>
                        <path d="M15.1542995,1.21153846 C17.9547498,1.21153846 20.1556768,3.41412235 20.15625,6.11744991 L20.15625,9.42166592 C20.15625,9.97395067 19.7085347,10.4216659 19.15625,10.4216659 L17.755864,10.4216659 L7.15227878,10.4208536 C6.60010654,10.4208263 6.15246002,9.97326452 6.15232824,9.42109229 L6.15175506,9.01947289 C6.15162326,8.46718815 6.59923164,8.01936606 7.15151638,8.01923426 C7.15157945,8.01923424 7.15164253,8.01923423 7.1517056,8.01923423 L17.2552908,8.01889928 C17.5314235,8.01888563 17.7552661,7.795032 17.7552661,7.51889928 L17.7552908,6.71685099 C17.7552908,5.01558438 16.4049304,3.66420739 14.7049436,3.66420739 L5.60204702,3.66420739 C3.90091385,3.66420739 2.55055343,5.01558438 2.55112659,6.71742458 L2.55055343,13.4244072 C2.55055343,15.126821 3.90091385,16.478198 5.60204702,16.478198 C5.60204702,16.478198 18.6052843,16.4776244 18.7061601,16.4776244 L18.705545,17.9801956 C18.7054186,18.5323746 18.2577659,18.9799435 17.7055869,18.9799666 L5.00195051,18.9807692 C2.25079176,18.9302934 0.000573158074,16.6783808 -5.32907052e-15,13.9750532 L-5.32907052e-15,6.1673522 C-5.32907052e-15,3.46459823 2.25079176,1.21211205 4.95208576,1.21153846 L15.1542995,1.21153846 Z" id="Fill-4"></path>
                    </g>
                    <g id="Group">
                        <path d="M0.0204724675,13.9627727 C0.0204724675,22.1498636 6.80787588,27.9162273 13.9501898,27.9162273 C22.0193004,27.9162273 27.87782,21.3507727 27.87782,13.9627727 C27.87782,12.5841364 27.7199207,11.0175909 27.0076494,9.09259091 C28.577296,17.1877727 22.1013355,22.8121364 15.861135,22.8121364 C11.4560153,22.8121364 7.48330396,20.4481364 5.58687831,16.3215 C3.77403042,12.3775 4.09554617,7.68413636 7.01359877,4.23313636 C8.46119097,2.52068182 10.8737842,0.453590909 14.9514895,0.0444090909 C7.59428724,-0.375409091 0.0204724675,5.00759091 0.0204724675,13.9627727" id="Fill-1" fill-opacity="0.4"></path>
                        <path d="M15.1583377,0.0665045455 C15.0900961,0.0582212121 15.0207656,0.0500545455 14.9515258,0.0444545455 C15.0186784,0.0513378788 15.0880089,0.0582212121 15.1583377,0.0665045455 Z M20.0518563,3.62418182 C20.0518563,1.84454545 17.5849058,0.296545455 15.1583377,0.0616363636 C16.9220008,0.222909091 19.5575588,0.909727273 21.0968959,2.04527273 C22.3791476,2.99118182 23.1778097,4.60272727 23.1778097,6.26809091 C23.1778097,13.5161818 9.98976558,13.013 9.98976558,21.0527273 C9.98976558,25.4988182 14.3478784,28.5849091 18.5653338,27.1503636 C17.16738,27.6801818 15.4985472,27.9162727 13.9502261,27.9162727 C5.70089253,27.9162727 0.514171104,20.8263636 0.514171104,16.6558182 C0.514171104,6.47109091 20.0518563,9.73454545 20.0518563,3.62418182 Z" id="Clip-5"></path>
                    </g>
                </g>
            </g>
        </g>
    </g>
</svg>